<mxfile host="app.diagrams.net" agent="Mozilla/5.0 (Macintosh; Intel Mac OS X 10_15_7) AppleWebKit/537.36 (KHTML, like Gecko) Chrome/139.0.0.0 Safari/537.36" version="28.2.3">
  <diagram id="prtHgNgQTEPvFCAcTncT" name="Page-1">
    <mxGraphModel dx="946" dy="1779" grid="1" gridSize="10" guides="1" tooltips="1" connect="1" arrows="1" fold="1" page="1" pageScale="1" pageWidth="827" pageHeight="1169" math="0" shadow="0">
      <root>
        <mxCell id="0" />
        <mxCell id="1" parent="0" />
        <mxCell id="j_qm16xbXS9vsEX-Bplc-20" style="edgeStyle=orthogonalEdgeStyle;rounded=0;orthogonalLoop=1;jettySize=auto;html=1;" edge="1" parent="1" source="j_qm16xbXS9vsEX-Bplc-2" target="j_qm16xbXS9vsEX-Bplc-19">
          <mxGeometry relative="1" as="geometry" />
        </mxCell>
        <mxCell id="j_qm16xbXS9vsEX-Bplc-2" value="" style="rounded=1;whiteSpace=wrap;html=1;" vertex="1" parent="1">
          <mxGeometry x="710" y="70" width="590" height="270" as="geometry" />
        </mxCell>
        <mxCell id="j_qm16xbXS9vsEX-Bplc-6" style="edgeStyle=orthogonalEdgeStyle;rounded=0;orthogonalLoop=1;jettySize=auto;html=1;entryX=0.49;entryY=0.012;entryDx=0;entryDy=0;entryPerimeter=0;" edge="1" parent="1" source="j_qm16xbXS9vsEX-Bplc-3" target="j_qm16xbXS9vsEX-Bplc-2">
          <mxGeometry relative="1" as="geometry" />
        </mxCell>
        <mxCell id="j_qm16xbXS9vsEX-Bplc-3" value="零评PIPE" style="shape=cylinder3;whiteSpace=wrap;html=1;boundedLbl=1;backgroundOutline=1;size=15;" vertex="1" parent="1">
          <mxGeometry x="1155" y="-100" width="110" height="70" as="geometry" />
        </mxCell>
        <mxCell id="j_qm16xbXS9vsEX-Bplc-9" value="" style="edgeStyle=orthogonalEdgeStyle;rounded=0;orthogonalLoop=1;jettySize=auto;html=1;" edge="1" parent="1" source="j_qm16xbXS9vsEX-Bplc-5" target="j_qm16xbXS9vsEX-Bplc-8">
          <mxGeometry relative="1" as="geometry" />
        </mxCell>
        <mxCell id="j_qm16xbXS9vsEX-Bplc-5" value="过滤敏感资源" style="rounded=1;whiteSpace=wrap;html=1;" vertex="1" parent="1">
          <mxGeometry x="745" y="120" width="120" height="60" as="geometry" />
        </mxCell>
        <mxCell id="j_qm16xbXS9vsEX-Bplc-7" value="&lt;b&gt;&lt;font style=&quot;font-size: 14px;&quot;&gt;Process&lt;/font&gt;&lt;/b&gt;" style="text;html=1;align=center;verticalAlign=middle;whiteSpace=wrap;rounded=0;" vertex="1" parent="1">
          <mxGeometry x="740" y="80" width="60" height="30" as="geometry" />
        </mxCell>
        <mxCell id="j_qm16xbXS9vsEX-Bplc-11" value="" style="edgeStyle=orthogonalEdgeStyle;rounded=0;orthogonalLoop=1;jettySize=auto;html=1;" edge="1" parent="1" source="j_qm16xbXS9vsEX-Bplc-8" target="j_qm16xbXS9vsEX-Bplc-10">
          <mxGeometry relative="1" as="geometry" />
        </mxCell>
        <mxCell id="j_qm16xbXS9vsEX-Bplc-8" value="获取模型信息&lt;div&gt;(策略模型升级)&lt;/div&gt;" style="rounded=1;whiteSpace=wrap;html=1;" vertex="1" parent="1">
          <mxGeometry x="945" y="120" width="120" height="60" as="geometry" />
        </mxCell>
        <mxCell id="j_qm16xbXS9vsEX-Bplc-13" value="" style="edgeStyle=orthogonalEdgeStyle;rounded=0;orthogonalLoop=1;jettySize=auto;html=1;" edge="1" parent="1" source="j_qm16xbXS9vsEX-Bplc-10" target="j_qm16xbXS9vsEX-Bplc-12">
          <mxGeometry relative="1" as="geometry" />
        </mxCell>
        <mxCell id="j_qm16xbXS9vsEX-Bplc-10" value="条件过滤&lt;div&gt;（标题关键字、NID、置顶资源、敏感资源)&lt;/div&gt;" style="rounded=1;whiteSpace=wrap;html=1;" vertex="1" parent="1">
          <mxGeometry x="1145" y="120" width="120" height="60" as="geometry" />
        </mxCell>
        <mxCell id="j_qm16xbXS9vsEX-Bplc-15" value="" style="edgeStyle=orthogonalEdgeStyle;rounded=0;orthogonalLoop=1;jettySize=auto;html=1;" edge="1" parent="1" source="j_qm16xbXS9vsEX-Bplc-12" target="j_qm16xbXS9vsEX-Bplc-14">
          <mxGeometry relative="1" as="geometry" />
        </mxCell>
        <mxCell id="j_qm16xbXS9vsEX-Bplc-12" value="过滤评论数&amp;gt;1" style="rounded=1;whiteSpace=wrap;html=1;" vertex="1" parent="1">
          <mxGeometry x="1145" y="240" width="120" height="60" as="geometry" />
        </mxCell>
        <mxCell id="j_qm16xbXS9vsEX-Bplc-17" value="" style="edgeStyle=orthogonalEdgeStyle;rounded=0;orthogonalLoop=1;jettySize=auto;html=1;" edge="1" parent="1" source="j_qm16xbXS9vsEX-Bplc-14" target="j_qm16xbXS9vsEX-Bplc-16">
          <mxGeometry relative="1" as="geometry" />
        </mxCell>
        <mxCell id="j_qm16xbXS9vsEX-Bplc-14" value="评论区正常判断" style="rounded=1;whiteSpace=wrap;html=1;" vertex="1" parent="1">
          <mxGeometry x="945" y="240" width="120" height="60" as="geometry" />
        </mxCell>
        <mxCell id="j_qm16xbXS9vsEX-Bplc-16" value="组装数据" style="rounded=1;whiteSpace=wrap;html=1;" vertex="1" parent="1">
          <mxGeometry x="745" y="240" width="120" height="60" as="geometry" />
        </mxCell>
        <mxCell id="j_qm16xbXS9vsEX-Bplc-45" style="edgeStyle=orthogonalEdgeStyle;rounded=0;orthogonalLoop=1;jettySize=auto;html=1;entryX=0.5;entryY=0;entryDx=0;entryDy=0;" edge="1" parent="1" source="j_qm16xbXS9vsEX-Bplc-19" target="j_qm16xbXS9vsEX-Bplc-32">
          <mxGeometry relative="1" as="geometry" />
        </mxCell>
        <mxCell id="j_qm16xbXS9vsEX-Bplc-19" value="零评生成PIPE" style="shape=cylinder3;whiteSpace=wrap;html=1;boundedLbl=1;backgroundOutline=1;size=15;" vertex="1" parent="1">
          <mxGeometry x="950" y="420" width="110" height="70" as="geometry" />
        </mxCell>
        <mxCell id="j_qm16xbXS9vsEX-Bplc-31" style="edgeStyle=orthogonalEdgeStyle;rounded=0;orthogonalLoop=1;jettySize=auto;html=1;" edge="1" parent="1" source="j_qm16xbXS9vsEX-Bplc-22" target="j_qm16xbXS9vsEX-Bplc-23">
          <mxGeometry relative="1" as="geometry" />
        </mxCell>
        <mxCell id="j_qm16xbXS9vsEX-Bplc-22" value="T+2 零评资源AFS" style="shape=cylinder3;whiteSpace=wrap;html=1;boundedLbl=1;backgroundOutline=1;size=15;" vertex="1" parent="1">
          <mxGeometry x="677.5" y="-260" width="110" height="70" as="geometry" />
        </mxCell>
        <mxCell id="j_qm16xbXS9vsEX-Bplc-28" style="edgeStyle=orthogonalEdgeStyle;rounded=0;orthogonalLoop=1;jettySize=auto;html=1;exitX=0.5;exitY=1;exitDx=0;exitDy=0;" edge="1" parent="1" source="j_qm16xbXS9vsEX-Bplc-23">
          <mxGeometry relative="1" as="geometry">
            <mxPoint x="1000" y="70" as="targetPoint" />
          </mxGeometry>
        </mxCell>
        <mxCell id="j_qm16xbXS9vsEX-Bplc-23" value="" style="rounded=1;whiteSpace=wrap;html=1;" vertex="1" parent="1">
          <mxGeometry x="520" y="-140" width="425" height="150" as="geometry" />
        </mxCell>
        <mxCell id="j_qm16xbXS9vsEX-Bplc-24" value="&lt;b&gt;&lt;font style=&quot;font-size: 14px;&quot;&gt;脚本&lt;/font&gt;&lt;/b&gt;" style="text;html=1;align=center;verticalAlign=middle;whiteSpace=wrap;rounded=0;" vertex="1" parent="1">
          <mxGeometry x="530" y="-130" width="60" height="30" as="geometry" />
        </mxCell>
        <mxCell id="j_qm16xbXS9vsEX-Bplc-27" value="" style="edgeStyle=orthogonalEdgeStyle;rounded=0;orthogonalLoop=1;jettySize=auto;html=1;" edge="1" parent="1" source="j_qm16xbXS9vsEX-Bplc-25" target="j_qm16xbXS9vsEX-Bplc-26">
          <mxGeometry relative="1" as="geometry" />
        </mxCell>
        <mxCell id="j_qm16xbXS9vsEX-Bplc-25" value="下拉AFS到本地" style="rounded=1;whiteSpace=wrap;html=1;" vertex="1" parent="1">
          <mxGeometry x="570" y="-90" width="120" height="60" as="geometry" />
        </mxCell>
        <mxCell id="j_qm16xbXS9vsEX-Bplc-26" value="解析资源ID调用" style="rounded=1;whiteSpace=wrap;html=1;" vertex="1" parent="1">
          <mxGeometry x="770" y="-90" width="120" height="60" as="geometry" />
        </mxCell>
        <mxCell id="j_qm16xbXS9vsEX-Bplc-32" value="" style="rounded=1;whiteSpace=wrap;html=1;" vertex="1" parent="1">
          <mxGeometry x="635" y="560" width="740" height="460" as="geometry" />
        </mxCell>
        <mxCell id="j_qm16xbXS9vsEX-Bplc-33" value="" style="edgeStyle=orthogonalEdgeStyle;rounded=0;orthogonalLoop=1;jettySize=auto;html=1;" edge="1" parent="1" source="j_qm16xbXS9vsEX-Bplc-34" target="j_qm16xbXS9vsEX-Bplc-37">
          <mxGeometry relative="1" as="geometry" />
        </mxCell>
        <mxCell id="j_qm16xbXS9vsEX-Bplc-34" value="过滤敏感资源" style="rounded=1;whiteSpace=wrap;html=1;" vertex="1" parent="1">
          <mxGeometry x="660" y="610" width="120" height="60" as="geometry" />
        </mxCell>
        <mxCell id="j_qm16xbXS9vsEX-Bplc-35" value="&lt;span style=&quot;font-size: 14px;&quot;&gt;&lt;b&gt;Rec&lt;/b&gt;&lt;/span&gt;" style="text;html=1;align=center;verticalAlign=middle;whiteSpace=wrap;rounded=0;" vertex="1" parent="1">
          <mxGeometry x="680" y="570" width="60" height="30" as="geometry" />
        </mxCell>
        <mxCell id="j_qm16xbXS9vsEX-Bplc-36" value="" style="edgeStyle=orthogonalEdgeStyle;rounded=0;orthogonalLoop=1;jettySize=auto;html=1;" edge="1" parent="1" source="j_qm16xbXS9vsEX-Bplc-37" target="j_qm16xbXS9vsEX-Bplc-39">
          <mxGeometry relative="1" as="geometry" />
        </mxCell>
        <mxCell id="j_qm16xbXS9vsEX-Bplc-37" value="获取模型信息&lt;div&gt;(策略模型升级)&lt;/div&gt;" style="rounded=1;whiteSpace=wrap;html=1;" vertex="1" parent="1">
          <mxGeometry x="860" y="610" width="120" height="60" as="geometry" />
        </mxCell>
        <mxCell id="j_qm16xbXS9vsEX-Bplc-38" value="" style="edgeStyle=orthogonalEdgeStyle;rounded=0;orthogonalLoop=1;jettySize=auto;html=1;" edge="1" parent="1" source="j_qm16xbXS9vsEX-Bplc-39" target="j_qm16xbXS9vsEX-Bplc-41">
          <mxGeometry relative="1" as="geometry" />
        </mxCell>
        <mxCell id="j_qm16xbXS9vsEX-Bplc-39" value="条件过滤&lt;div&gt;（标题关键字、NID、置顶资源、敏感资源)&lt;/div&gt;" style="rounded=1;whiteSpace=wrap;html=1;" vertex="1" parent="1">
          <mxGeometry x="1060" y="610" width="120" height="60" as="geometry" />
        </mxCell>
        <mxCell id="j_qm16xbXS9vsEX-Bplc-40" value="" style="edgeStyle=orthogonalEdgeStyle;rounded=0;orthogonalLoop=1;jettySize=auto;html=1;" edge="1" parent="1" source="j_qm16xbXS9vsEX-Bplc-41" target="j_qm16xbXS9vsEX-Bplc-43">
          <mxGeometry relative="1" as="geometry" />
        </mxCell>
        <mxCell id="j_qm16xbXS9vsEX-Bplc-41" value="过滤评论数&amp;gt;1" style="rounded=1;whiteSpace=wrap;html=1;" vertex="1" parent="1">
          <mxGeometry x="1060" y="730" width="120" height="60" as="geometry" />
        </mxCell>
        <mxCell id="j_qm16xbXS9vsEX-Bplc-42" value="" style="edgeStyle=orthogonalEdgeStyle;rounded=0;orthogonalLoop=1;jettySize=auto;html=1;" edge="1" parent="1" source="j_qm16xbXS9vsEX-Bplc-43" target="j_qm16xbXS9vsEX-Bplc-44">
          <mxGeometry relative="1" as="geometry" />
        </mxCell>
        <mxCell id="j_qm16xbXS9vsEX-Bplc-43" value="评论区正常判断" style="rounded=1;whiteSpace=wrap;html=1;" vertex="1" parent="1">
          <mxGeometry x="860" y="730" width="120" height="60" as="geometry" />
        </mxCell>
        <mxCell id="j_qm16xbXS9vsEX-Bplc-44" value="组装数据" style="rounded=1;whiteSpace=wrap;html=1;" vertex="1" parent="1">
          <mxGeometry x="660" y="730" width="120" height="60" as="geometry" />
        </mxCell>
      </root>
    </mxGraphModel>
  </diagram>
</mxfile>
